<svg width="106" height="109" viewBox="0 0 106 109" fill="none" xmlns="http://www.w3.org/2000/svg">
<path d="M0.716575 40.4713L102.927 39.52L105.917 108.998L0.0823975 108.241L0.716575 40.4713Z" fill="#3863FA"/>
<path d="M0.441284 40.8607L48.725 1.62116C49.7169 0.814746 50.9562 0.374512 52.2345 0.374512C53.5129 0.374512 54.7522 0.814746 55.7441 1.62116L102.644 39.9022" fill="#3863FA"/>
<g opacity="0.3">
<path d="M0.716553 40.4862L49.0002 1.24665C49.9921 0.440234 51.2315 0 52.5098 0C53.7882 0 55.0275 0.440234 56.0194 1.24665L102.919 39.5277" fill="#0D0A0B"/>
</g>
<path d="M0.0824167 108.228C-0.0400942 108.105 8.1177 99.1547 18.3149 88.2368C28.5122 77.319 36.8861 68.5919 37.0158 68.6928C37.1456 68.7937 28.9806 77.7586 18.7761 88.6836C8.5717 99.6087 0.212134 108.357 0.0824167 108.228Z" fill="#5D5B5C"/>
<path d="M105.917 108.999C105.788 109.122 97.8028 100.351 88.0812 89.491C78.3596 78.6308 70.5838 69.6731 70.7135 69.5578C70.8432 69.4425 78.8281 78.2056 88.5569 89.073C98.2857 99.9405 106.047 108.884 105.917 108.999Z" fill="#5D5B5C"/>
<g opacity="0.5">
<path d="M102.652 39.8955L51.4131 81.0015L0.441406 40.8468" fill="#0D0A0B"/>
</g>
<path d="M5.87649 44.2626L5.64587 12.3377L95.1437 11.0981L96.2174 44.6805L51.6811 80.0862L5.87649 44.2626Z" fill="#EBEFFF"/>
<path d="M81.0333 27.197C81.0333 27.2979 67.3409 27.4925 50.4632 27.6294C33.5856 27.7663 19.8932 27.7951 19.8932 27.6942C19.8932 27.5934 33.5856 27.3988 50.4632 27.2547C67.3409 27.1105 81.0333 27.0889 81.0333 27.197Z" fill="#5D5B5C"/>
<path d="M81.0477 36.213C81.0477 36.3139 67.3553 36.5157 50.4848 36.6526C33.6144 36.7895 19.9148 36.8184 19.9148 36.7103C19.9148 36.6022 33.6072 36.4148 50.4848 36.2779C67.3625 36.141 81.0477 36.1121 81.0477 36.213Z" fill="#5D5B5C"/>
<path d="M81.0693 46.6046C81.0693 46.7127 67.3769 46.9073 50.5065 47.0442C33.636 47.1812 19.9364 47.21 19.9364 47.1019C19.9364 46.9938 33.6288 46.8064 50.5065 46.6695C67.3841 46.5326 81.0693 46.5037 81.0693 46.6046Z" fill="#5D5B5C"/>
<path d="M81.0909 56.9965C81.0909 57.1046 68.0399 57.2919 51.9333 57.4216C35.8268 57.5514 22.7686 57.5802 22.7686 57.4721C22.7686 57.364 35.8196 57.1766 51.9333 57.0469C68.0471 56.9172 81.0909 56.8956 81.0909 56.9965Z" fill="#5D5B5C"/>
<path d="M69.6757 66.1415C69.5585 66.1743 69.437 66.1889 69.3154 66.1848L68.2849 66.228L64.5086 66.3217L52.0341 66.5523C47.1625 66.6388 42.745 66.6676 39.5525 66.6676H35.7762H34.7457C34.6246 66.6708 34.5035 66.6587 34.3854 66.6316C34.5026 66.5988 34.6241 66.5842 34.7457 66.5883L35.769 66.5451L39.5525 66.4514L52.0269 66.228C56.8986 66.1343 61.3089 66.1055 64.5014 66.1055H68.2849H69.3154C69.4364 66.1056 69.5571 66.1177 69.6757 66.1415Z" fill="#5D5B5C"/>
<path d="M58.1453 74.933C55.9892 75.1272 53.8235 75.1946 51.6595 75.1348C49.496 75.2031 47.3304 75.1453 45.1736 74.9619C47.33 74.772 49.4954 74.7046 51.6595 74.7601C53.8229 74.6961 55.9883 74.7539 58.1453 74.933Z" fill="#5D5B5C"/>
</svg>
