<svg width="218" height="200" viewBox="0 0 218 200" fill="none" xmlns="http://www.w3.org/2000/svg">
<path fill-rule="evenodd" clip-rule="evenodd" d="M146.449 191.955C146.449 193.374 128.198 194.524 105.683 194.524C83.1685 194.524 64.916 193.374 64.916 191.955C64.916 190.538 83.1685 189.388 105.683 189.388C128.198 189.388 146.449 190.538 146.449 191.955Z" fill="#DCDCE2"/>
<path d="M100.532 26.9639C78.2933 28.8464 70.1197 47.6702 76.8156 58.6427C81.5404 66.3843 89.5467 76.8471 104.471 74.3374C119.395 71.8271 120.652 58.0156 112.792 56.1369C104.933 54.2588 76.9325 63.0207 80.097 83.2623C82.3813 97.8672 102.181 102.077 102.181 102.077" stroke="#EBEFFF" stroke-width="2" stroke-dasharray="7"/>
<path fill-rule="evenodd" clip-rule="evenodd" d="M113.386 15.4078C113.386 15.4078 116.573 7.08348 116.909 3.84522C117.086 2.15313 114.282 -2.55802 111 1.79979C107.718 6.15761 109.215 11.5008 113.386 15.4078Z" fill="#EBEFFF"/>
<path fill-rule="evenodd" clip-rule="evenodd" d="M102.078 6.34242C98.3449 5.07996 96.655 6.06427 95.9349 8.02897C95.2142 9.99433 96.2201 13.7352 101.851 14.588C107.482 15.4408 113.064 15.4081 113.064 15.4081C113.064 15.4081 105.811 7.60488 102.078 6.34242Z" fill="#EBEFFF"/>
<path fill-rule="evenodd" clip-rule="evenodd" d="M112.755 17.0572C112.84 16.7093 112.952 16.3758 113.077 16.0498C112.387 16.1587 111.686 16.3116 110.98 16.5186C110.215 16.7426 109.5 17.0365 108.828 17.3731C108.536 17.9243 108.3 18.5133 108.147 19.1457C107.201 23.0388 109.434 26.9628 113.186 28.2477C113.593 28.1671 114.001 28.074 114.41 27.9544C115.553 27.6197 116.607 27.1767 117.56 26.6632C113.895 25.0555 111.786 21.0435 112.755 17.0572Z" fill="#EBEFFF"/>
<path fill-rule="evenodd" clip-rule="evenodd" d="M107.396 19.0873C107.486 18.7027 107.607 18.3349 107.742 17.9756C104.496 20.0553 102.678 23.283 102.978 25.1652C100.903 26.0568 99.582 26.8078 99.582 26.8078C99.582 26.8078 101.147 26.6887 103.428 26.2504C104.649 28.0355 108.036 29.2307 111.78 28.8021C108.388 27.0481 106.474 23.0563 107.396 19.0873Z" fill="#EBEFFF"/>
<path fill-rule="evenodd" clip-rule="evenodd" d="M118.047 20.5892C117.245 20.3959 116.747 19.5868 116.94 18.7764C117.133 17.9716 117.944 17.4729 118.746 17.6662C119.552 17.8608 120.044 18.673 119.852 19.4784C119.659 20.2881 118.854 20.7832 118.047 20.5892ZM114.298 16.132C114.138 16.5034 114.002 16.8953 113.905 17.3011C113.054 20.8592 115.02 24.4383 118.354 25.6797C121.135 23.9415 122.697 21.4802 122.064 19.3431C121.359 16.946 118.12 15.7081 114.298 16.132Z" fill="#EBEFFF"/>
<path fill-rule="evenodd" clip-rule="evenodd" d="M67.3253 166.276H147.271C149.298 166.276 150.942 164.629 150.942 162.597V108.975C150.942 106.938 149.294 105.287 147.263 105.287H65.3854C64.4161 105.287 63.6309 106.074 63.6309 107.046V162.573C63.6309 164.618 65.2843 166.276 67.3253 166.276Z" fill="#3863FA"/>
<path fill-rule="evenodd" clip-rule="evenodd" d="M67.2761 165.634H76.9774C77.0518 165.634 77.1127 165.574 77.1127 165.499V97.7186C77.1127 97.6438 77.0518 97.583 76.9774 97.583H67.2761C65.2624 97.583 63.6309 99.2097 63.6309 101.217V162C63.6309 164.007 65.2624 165.634 67.2761 165.634Z" fill="#A3B7FD"/>
<path fill-rule="evenodd" clip-rule="evenodd" d="M130.841 143.165H155.944C156.018 143.165 156.079 143.103 156.079 143.027V127.894C156.079 127.818 156.018 127.757 155.944 127.757H130.841C128.825 127.757 127.189 129.412 127.189 131.453V139.468C127.189 141.51 128.825 143.165 130.841 143.165Z" fill="#A3B7FD"/>
<path fill-rule="evenodd" clip-rule="evenodd" d="M136.365 97.583H67.364V97.5921C65.2953 97.6419 63.6309 99.3389 63.6309 101.435C63.6309 103.532 65.2953 105.229 67.364 105.279V105.287H140.534C140.609 105.287 140.67 105.226 140.67 105.15V101.92C140.67 99.5247 138.742 97.583 136.365 97.583Z" fill="#EBEFFF"/>
<path fill-rule="evenodd" clip-rule="evenodd" d="M139.387 135.461C139.387 137.234 137.95 138.671 136.177 138.671C134.404 138.671 132.967 137.234 132.967 135.461C132.967 133.688 134.404 132.251 136.177 132.251C137.95 132.251 139.387 133.688 139.387 135.461Z" fill="#FEFEFF"/>
<path d="M7.77734 119.411V121.337" stroke="#A3B7FD" stroke-width="2.921" stroke-linecap="round"/>
<path d="M3.92578 121.337L5.20977 122.621" stroke="#A3B7FD" stroke-width="2.921" stroke-linecap="round"/>
<path d="M2 125.188H3.92598" stroke="#A3B7FD" stroke-width="2.921" stroke-linecap="round"/>
<path d="M3.92578 129.041L5.20977 127.757" stroke="#A3B7FD" stroke-width="2.921" stroke-linecap="round"/>
<path d="M7.77734 130.967V129.041" stroke="#A3B7FD" stroke-width="2.921" stroke-linecap="round"/>
<path d="M11.6297 129.041L10.3457 127.757" stroke="#A3B7FD" stroke-width="2.921" stroke-linecap="round"/>
<path d="M13.5549 125.188H11.6289" stroke="#A3B7FD" stroke-width="2.921" stroke-linecap="round"/>
<path d="M11.6297 121.337L10.3457 122.621" stroke="#A3B7FD" stroke-width="2.921" stroke-linecap="round"/>
<path d="M106.645 40.4453V41.7293" stroke="#A3B7FD" stroke-width="2.921" stroke-linecap="round"/>
<path d="M103.436 43.6553H104.72" stroke="#A3B7FD" stroke-width="2.921" stroke-linecap="round"/>
<path d="M106.645 47.5076V46.2236" stroke="#A3B7FD" stroke-width="2.921" stroke-linecap="round"/>
<path d="M110.497 44.2979H109.213" stroke="#A3B7FD" stroke-width="2.921" stroke-linecap="round"/>
<path d="M36.0254 91.1631V93.0891" stroke="#A3B7FD" stroke-width="2.921" stroke-linecap="round"/>
<path d="M30.248 96.9414H32.174" stroke="#A3B7FD" stroke-width="2.921" stroke-linecap="round"/>
<path d="M35.3828 102.076V100.15" stroke="#A3B7FD" stroke-width="2.921" stroke-linecap="round"/>
<path d="M41.1623 96.9414H39.2363" stroke="#A3B7FD" stroke-width="2.921" stroke-linecap="round"/>
<path d="M166.992 158.572C168.41 158.572 169.56 159.722 169.56 161.141C169.56 162.558 168.41 163.708 166.992 163.708C165.574 163.708 164.424 162.558 164.424 161.141" stroke="#A3B7FD" stroke-width="2.921" stroke-linecap="round"/>
<path d="M179.147 193.587C179.474 195.88 177.89 198.005 175.608 198.333C173.328 198.662 171.213 197.07 170.886 194.777C170.56 192.484 172.144 190.359 174.425 190.03" stroke="#A3B7FD" stroke-width="2.921" stroke-linecap="round"/>
<path fill-rule="evenodd" clip-rule="evenodd" d="M179.191 134.176C180.748 133.684 183.133 131.757 183.686 129.683C184.186 131.516 186.285 133.684 188.179 133.849C186.047 134.614 184.009 136.886 183.686 138.671C183.465 136.851 180.646 134.441 179.191 134.176Z" fill="#EBECEF"/>
<path fill-rule="evenodd" clip-rule="evenodd" d="M18.0508 157.609C18.8293 157.363 20.0218 156.399 20.2981 155.362C20.5483 156.279 21.5973 157.363 22.5447 157.445C21.4786 157.828 20.4594 158.964 20.2981 159.856C20.1876 158.947 18.7785 157.742 18.0508 157.609Z" fill="#EBECEF"/>
<path fill-rule="evenodd" clip-rule="evenodd" d="M32.1742 72.5451C32.1742 73.6092 31.3117 74.4711 30.2482 74.4711C29.1841 74.4711 28.3223 73.6092 28.3223 72.5451C28.3223 71.481 29.1841 70.6191 30.2482 70.6191C31.3117 70.6191 32.1742 71.481 32.1742 72.5451Z" fill="#D1D9E0"/>
<path fill-rule="evenodd" clip-rule="evenodd" d="M217.068 68.6927C217.068 70.1115 215.918 71.2609 214.5 71.2609C213.081 71.2609 211.932 70.1115 211.932 68.6927C211.932 67.2745 213.081 66.125 214.5 66.125C215.918 66.125 217.068 67.2745 217.068 68.6927Z" fill="#EBECEF"/>
<path fill-rule="evenodd" clip-rule="evenodd" d="M69.4106 59.0637C69.4106 60.1278 68.5481 60.9897 67.4846 60.9897C66.4205 60.9897 65.5586 60.1278 65.5586 59.0637C65.5586 57.9996 66.4205 57.1377 67.4846 57.1377C68.5481 57.1377 69.4106 57.9996 69.4106 59.0637Z" stroke="#A3B7FD" stroke-width="2.921" stroke-linecap="round"/>
<path fill-rule="evenodd" clip-rule="evenodd" d="M39.5063 180.874C38.181 181.378 36.6983 180.712 36.1941 179.387C35.6893 178.062 36.3555 176.579 37.6807 176.075C39.006 175.57 40.4887 176.236 40.9928 177.562C41.497 178.887 40.8315 180.37 39.5063 180.874Z" stroke="#A3B7FD" stroke-width="2.921" stroke-linecap="round"/>
</svg>
