<svg width="35" height="35" viewBox="0 0 35 35" fill="none" xmlns="http://www.w3.org/2000/svg">
<path fill-rule="evenodd" clip-rule="evenodd" d="M10.7957 7.09916C15.2569 6.71174 19.7433 6.71174 24.2045 7.09916L26.3437 7.28616C27.338 7.37324 28.2742 7.79221 29.0016 8.4757C29.7291 9.1592 30.2055 10.0675 30.3542 11.0545C30.9968 15.3277 30.9968 19.673 30.3542 23.9462C30.2966 24.3211 30.1965 24.6772 30.0539 25.0143C29.9604 25.2367 29.6714 25.2707 29.5071 25.0922L23.244 18.2016C23.1055 18.0492 22.9257 17.9404 22.7265 17.8884C22.5273 17.8363 22.3173 17.8432 22.122 17.9083L18.5364 19.104L13.3358 13.2532C13.2396 13.1449 13.1223 13.0575 12.9911 12.9962C12.8599 12.935 12.7176 12.9012 12.5728 12.897C12.4281 12.8927 12.284 12.9181 12.1494 12.9716C12.0148 13.025 11.8926 13.1054 11.7902 13.2078L4.82875 20.1693C4.78145 20.2179 4.721 20.2517 4.65481 20.2665C4.58861 20.2812 4.51955 20.2763 4.45608 20.2524C4.39262 20.2285 4.33751 20.1866 4.29751 20.1318C4.25752 20.0771 4.23437 20.0118 4.23091 19.9441C4.06338 16.9741 4.202 13.9947 4.64458 11.0531C4.79336 10.0661 5.26977 9.15778 5.99721 8.47429C6.72464 7.7908 7.66081 7.37182 8.65516 7.28474L10.7957 7.09916ZM20.3327 13.2503C20.3327 12.6867 20.5566 12.1462 20.9551 11.7477C21.3537 11.3492 21.8942 11.1253 22.4577 11.1253C23.0213 11.1253 23.5618 11.3492 23.9603 11.7477C24.3589 12.1462 24.5827 12.6867 24.5827 13.2503C24.5827 13.8139 24.3589 14.3544 23.9603 14.7529C23.5618 15.1514 23.0213 15.3753 22.4577 15.3753C21.8942 15.3753 21.3537 15.1514 20.9551 14.7529C20.5566 14.3544 20.3327 13.8139 20.3327 13.2503Z" fill="#A3B7FD"/>
<path d="M4.69428 23.3087C4.65602 23.3473 4.62717 23.3943 4.60997 23.4458C4.59277 23.4974 4.58769 23.5523 4.59511 23.6062L4.64469 23.9462C4.79347 24.9332 5.26989 25.8415 5.99732 26.525C6.72475 27.2084 7.66092 27.6274 8.65528 27.7145L10.7944 27.9001C15.2569 28.2882 19.7421 28.2882 24.2046 27.9001L26.3438 27.7145C26.9307 27.6649 27.5016 27.4977 28.0225 27.2229C28.2166 27.1223 28.2492 26.8659 28.1019 26.7044L22.2935 20.3152C22.2474 20.264 22.1873 20.2272 22.1206 20.2096C22.0539 20.192 21.9835 20.1943 21.9181 20.2161L18.5436 21.3409C18.3463 21.4068 18.134 21.4133 17.9331 21.3597C17.7321 21.306 17.5513 21.1946 17.4131 21.0392L12.7452 15.7876C12.7131 15.7515 12.6739 15.7224 12.6301 15.702C12.5862 15.6816 12.5387 15.6704 12.4904 15.6691C12.4421 15.6678 12.3941 15.6763 12.3492 15.6943C12.3043 15.7122 12.2636 15.7391 12.2295 15.7734L4.69428 23.3087Z" fill="#A3B7FD"/>
</svg>
