<svg width="30" height="30" viewBox="0 0 30 30" fill="none" xmlns="http://www.w3.org/2000/svg">
<path opacity="0.5" d="M13.2005 2.81251C13.0592 2.81251 12.9492 2.81251 12.8442 2.81876C12.1948 2.85824 11.5698 3.08124 11.0421 3.46183C10.5144 3.84242 10.1055 4.36498 9.86297 4.96876C9.82297 5.06751 9.78797 5.17376 9.73922 5.31626C9.63547 5.59626 9.39672 5.91501 9.06172 6.17001C9.02422 6.19876 8.98672 6.22501 8.94922 6.25001H11.3767C11.413 6.17501 11.4467 6.10001 11.4767 6.02251L11.478 6.01876L11.483 6.00626L11.4892 5.99126L11.4955 5.97626L11.5005 5.96376L11.5017 5.95751L11.508 5.94251L11.5117 5.92751L11.5155 5.92001L11.518 5.91001L11.5205 5.90126L11.523 5.89376C11.573 5.74876 11.588 5.70251 11.6017 5.66751C11.712 5.39286 11.898 5.15517 12.1381 4.98212C12.3782 4.80907 12.6625 4.70777 12.958 4.69001C12.998 4.68751 13.0467 4.68751 13.2267 4.68751H16.773C16.953 4.68751 17.0017 4.68751 17.043 4.69001C17.6455 4.72751 18.173 5.10751 18.398 5.66751C18.4117 5.70251 18.4267 5.74626 18.4767 5.89376L18.4792 5.90126L18.4817 5.91001L18.4855 5.92001L18.488 5.92751L18.4917 5.94251L18.498 5.95751L18.4992 5.96376L18.5042 5.97626L18.5105 5.99126L18.5155 6.00626L18.5217 6.01876L18.523 6.02251C18.553 6.10001 18.5855 6.17501 18.623 6.25001H21.0505C21.013 6.22501 20.9755 6.19876 20.938 6.17001C20.603 5.91501 20.3642 5.59501 20.2605 5.31626L20.2567 5.30376C20.2117 5.17001 20.1767 5.06501 20.138 4.96751C19.8952 4.36378 19.486 3.84136 18.9581 3.46099C18.4301 3.08061 17.805 2.85791 17.1555 2.81876C17.0368 2.81316 16.918 2.81108 16.7992 2.81251H13.2005Z" fill="#335AE4"/>
<path fill-rule="evenodd" clip-rule="evenodd" d="M21.49 6.25H8.51C6.4 6.25 5.34625 6.25 4.54125 6.6625C3.84091 7.0211 3.2711 7.59091 2.9125 8.29125C2.5 9.09625 2.5 10.15 2.5 12.26C2.5 12.7962 2.5 13.0637 2.59125 13.29C2.67116 13.4875 2.80025 13.6614 2.96625 13.795C3.1575 13.9475 3.41375 14.0238 3.92875 14.1788L10.625 16.1875V17.7038C10.625 18.66 11.2 19.5425 12.1088 19.9125L12.8088 20.1962C14.2137 20.7675 15.7863 20.7675 17.1912 20.1962L17.8912 19.9125C18.3302 19.7337 18.7059 19.428 18.9702 19.0346C19.2345 18.6411 19.3755 18.1777 19.375 17.7038V16.1875L26.0725 14.1788C26.585 14.0238 26.8425 13.9475 27.0325 13.795C27.1985 13.6614 27.3276 13.4875 27.4075 13.29C27.5 13.065 27.5 12.7962 27.5 12.26C27.5 10.15 27.5 9.09625 27.0875 8.29125C26.7289 7.59091 26.1591 7.0211 25.4588 6.6625C24.6538 6.25 23.6 6.25 21.49 6.25ZM17 15H13C12.725 15 12.5 15.2275 12.5 15.5075V17.7038C12.5 17.9113 12.625 18.0975 12.8138 18.175L13.5138 18.46C14.4688 18.8475 15.5312 18.8475 16.485 18.46L17.185 18.175C17.2783 18.1366 17.3581 18.0712 17.4142 17.9873C17.4703 17.9034 17.5002 17.8047 17.5 17.7038V15.5075C17.5005 15.4413 17.488 15.3757 17.4631 15.3144C17.4382 15.2531 17.4015 15.1973 17.3551 15.1502C17.3087 15.1031 17.2534 15.0655 17.1925 15.0398C17.1316 15.014 17.0662 15.0005 17 15Z" fill="#335AE4"/>
<path opacity="0.5" d="M3.75 14.125L3.9275 14.1788L10.625 16.1875V17.7037C10.625 18.66 11.2 19.5425 12.1088 19.9125L12.8088 20.1962C14.2137 20.7675 15.7863 20.7675 17.1912 20.1962L17.8912 19.9125C18.3302 19.7337 18.7059 19.428 18.9702 19.0346C19.2345 18.6411 19.3755 18.1777 19.375 17.7037V16.1875L26.0725 14.1788L26.25 14.125V15.375C26.25 19.9688 26.2062 24.61 24.6025 26.035C22.955 27.5 20.3025 27.5 15 27.5C9.69625 27.5 7.045 27.5 5.3975 26.035C3.79375 24.61 3.75125 19.9688 3.75 15.375V14.125Z" fill="#335AE4"/>
</svg>
