
<svg width="31" height="30" viewBox="0 0 31 30" fill="none" xmlns="http://www.w3.org/2000/svg">
<path d="M15.5 20C17.5711 20 19.25 18.3211 19.25 16.25C19.25 14.1789 17.5711 12.5 15.5 12.5C13.4289 12.5 11.75 14.1789 11.75 16.25C11.75 18.3211 13.4289 20 15.5 20Z" stroke="#39353D" stroke-width="1.5" stroke-linecap="round"/>
<path d="M3 16.7051C3 12.8738 3 10.9588 3.93625 9.58381C4.3427 8.98588 4.86356 8.47437 5.46875 8.07881C6.36875 7.48756 7.49625 7.27631 9.2225 7.20131C10.0463 7.20131 10.755 6.58881 10.9163 5.79506C11.0395 5.21364 11.3597 4.6926 11.8227 4.32C12.2857 3.94739 12.8632 3.74607 13.4575 3.75006H17.5425C18.7775 3.75006 19.8412 4.60631 20.0837 5.79506C20.245 6.58881 20.9537 7.20131 21.7775 7.20131C23.5025 7.27631 24.63 7.48881 25.5312 8.07881C26.1375 8.47631 26.6587 8.98756 27.0637 9.58381C28 10.9588 28 12.8738 28 16.7051C28 20.5351 28 22.4501 27.0637 23.8263C26.6566 24.4236 26.1359 24.935 25.5312 25.3313C24.13 26.2501 22.1788 26.2501 18.2775 26.2501H12.7225C8.82125 26.2501 6.87 26.2501 5.46875 25.3313C4.86443 24.9346 4.34412 24.4228 3.9375 23.8251C3.66657 23.4202 3.46663 22.9721 3.34625 22.5001M24.25 12.5001H23" stroke="#39353D" stroke-width="1.5" stroke-linecap="round"/>
</svg>
