<svg width="30" height="30" viewBox="0 0 30 30" fill="none" xmlns="http://www.w3.org/2000/svg">
<path d="M3.75 7.5H26.25V22.5H3.75V7.5ZM15 11.25C15.9946 11.25 16.9484 11.6451 17.6517 12.3483C18.3549 13.0516 18.75 14.0054 18.75 15C18.75 15.9946 18.3549 16.9484 17.6517 17.6517C16.9484 18.3549 15.9946 18.75 15 18.75C14.0054 18.75 13.0516 18.3549 12.3483 17.6517C11.6451 16.9484 11.25 15.9946 11.25 15C11.25 14.0054 11.6451 13.0516 12.3483 12.3483C13.0516 11.6451 14.0054 11.25 15 11.25ZM8.75 10C8.75 10.663 8.48661 11.2989 8.01777 11.7678C7.54893 12.2366 6.91304 12.5 6.25 12.5V17.5C6.91304 17.5 7.54893 17.7634 8.01777 18.2322C8.48661 18.7011 8.75 19.337 8.75 20H21.25C21.25 19.337 21.5134 18.7011 21.9822 18.2322C22.4511 17.7634 23.087 17.5 23.75 17.5V12.5C23.087 12.5 22.4511 12.2366 21.9822 11.7678C21.5134 11.2989 21.25 10.663 21.25 10H8.75Z" fill="#39353D"/>
</svg>
