<svg width="195" height="195" viewBox="0 0 195 195" fill="none" xmlns="http://www.w3.org/2000/svg">
<path d="M105.804 0L97.4997 97.5L89.1992 0H105.804Z" fill="#EBEBEB"/>
<path d="M55.9422 8.90637L97.5002 97.5002L41.5625 17.2111L55.9422 8.90637Z" fill="#EBEBEB"/>
<path d="M17.2149 41.5536L97.4996 97.4999L8.91016 55.9376L17.2149 41.5536Z" fill="#EBEBEB"/>
<path d="M0 89.1953L97.5 97.5L0 105.8V89.1953Z" fill="#EBEBEB"/>
<path d="M8.90625 139.058L97.5 97.5L17.211 153.438L8.90625 139.058Z" fill="#EBEBEB"/>
<path d="M41.5527 177.785L97.499 97.5L55.9367 186.09L41.5527 177.785Z" fill="#EBEBEB"/>
<path d="M89.1953 195L97.5 97.5L105.8 195H89.1953Z" fill="#EBEBEB"/>
<path d="M139.058 186.094L97.5 97.5L153.438 177.789L139.058 186.094Z" fill="#EBEBEB"/>
<path d="M177.785 153.442L97.5 97.5L186.09 139.062L177.785 153.442Z" fill="#EBEBEB"/>
<path d="M195 105.805L97.5 97.4999L195 89.1995V105.805Z" fill="#EBEBEB"/>
<path d="M186.094 55.9422L97.5 97.5002L177.789 41.5625L186.094 55.9422Z" fill="#EBEBEB"/>
<path d="M153.442 17.2153L97.5 97.5L139.062 8.91052L153.442 17.2153Z" fill="#EBEBEB"/>
</svg>
