<svg width="17" height="5" viewBox="0 0 17 5" fill="none" xmlns="http://www.w3.org/2000/svg">
<path d="M2.03699 2.24579H2.04619M8.47558 2.24579H8.48478M14.9142 2.24579H14.9234M2.95679 2.24579C2.95679 2.79807 2.54498 3.24579 2.03699 3.24579C1.529 3.24579 1.11719 2.79807 1.11719 2.24579C1.11719 1.6935 1.529 1.24579 2.03699 1.24579C2.54498 1.24579 2.95679 1.6935 2.95679 2.24579ZM9.39538 2.24579C9.39538 2.79807 8.98357 3.24579 8.47558 3.24579C7.96759 3.24579 7.55578 2.79807 7.55578 2.24579C7.55578 1.6935 7.96759 1.24579 8.47558 1.24579C8.98357 1.24579 9.39538 1.6935 9.39538 2.24579ZM15.834 2.24579C15.834 2.79807 15.4222 3.24579 14.9142 3.24579C14.4062 3.24579 13.9944 2.79807 13.9944 2.24579C13.9944 1.6935 14.4062 1.24579 14.9142 1.24579C15.4222 1.24579 15.834 1.6935 15.834 2.24579Z" stroke="#A1A1AA" stroke-width="2" stroke-linecap="round" stroke-linejoin="round"/>
</svg>
