<svg width="44" height="44" viewBox="0 0 44 44" fill="none" xmlns="http://www.w3.org/2000/svg">
<rect width="44" height="44" rx="22" fill="#EBEFFF"/>
<path d="M21 12H19C14 12 12 14 12 19V25C12 30 14 32 19 32H25C30 32 32 30 32 25V23" stroke="#6082FB" stroke-width="1.5" stroke-linecap="round" stroke-linejoin="round"/>
<path d="M26.0399 13.0198L18.1599 20.8998C17.8599 21.1998 17.5599 21.7898 17.4999 22.2198L17.0699 25.2298C16.9099 26.3198 17.6799 27.0798 18.7699 26.9298L21.7799 26.4998C22.1999 26.4398 22.7899 26.1398 23.0999 25.8398L30.9799 17.9598C32.3399 16.5998 32.9799 15.0198 30.9799 13.0198C28.9799 11.0198 27.3999 11.6598 26.0399 13.0198Z" stroke="#6082FB" stroke-width="1.5" stroke-miterlimit="10" stroke-linecap="round" stroke-linejoin="round"/>
<path d="M24.9102 14.1499C25.5802 16.5399 27.4502 18.4099 29.8502 19.0899" stroke="#6082FB" stroke-width="1.5" stroke-miterlimit="10" stroke-linecap="round" stroke-linejoin="round"/>
</svg>
