<svg width="28" height="28" viewBox="0 0 28 28" fill="none" xmlns="http://www.w3.org/2000/svg">
<path d="M0 10.5C0 8.56953 1.56953 7 3.5 7H3.5875C3.99219 5.00391 5.75859 3.5 7.875 3.5C8.69531 3.5 9.46094 3.72422 10.1117 4.1125C10.8391 2.7125 12.3102 1.75 14 1.75C15.6898 1.75 17.1609 2.7125 17.8883 4.1125C18.5391 3.72422 19.3047 3.5 20.125 3.5C22.2414 3.5 24.0078 5.00391 24.4125 7H24.5C26.4305 7 28 8.56953 28 10.5C28 11.1398 27.8305 11.7359 27.5297 12.25H0.470313C0.169531 11.7359 0 11.1398 0 10.5ZM0 15.4984C0 14.6727 0.672656 14 1.49844 14H26.5016C27.3273 14 28 14.6727 28 15.4984C28 19.3539 25.5719 22.6461 22.1648 23.9258L22.0664 24.7188C21.957 25.5938 21.2133 26.25 20.3273 26.25H7.66719C6.78672 26.25 6.0375 25.5938 5.92812 24.7188L5.82969 23.9312C2.42812 22.6461 0 19.3539 0 15.4984Z" fill="#2152FF"/>
</svg>
