<svg width="41" height="41" viewBox="0 0 41 41" fill="none" xmlns="http://www.w3.org/2000/svg">
<path d="M33 17.7852V33C33 33.9946 32.6049 34.9484 31.9017 35.6517C31.1984 36.3549 30.2446 36.75 29.25 36.75H11.75C10.7554 36.75 9.80161 36.3549 9.09835 35.6517C8.39509 34.9484 8 33.9946 8 33V8C8 7.00544 8.39509 6.05161 9.09835 5.34835C9.80161 4.64509 10.7554 4.25 11.75 4.25H19.4648C20.1277 4.2501 20.7633 4.51341 21.232 4.98203L32.268 16.018C32.7366 16.4867 32.9999 17.1223 33 17.7852Z" stroke="#C2D1D9" stroke-width="2" stroke-linejoin="round"/>
<path d="M20.5 4.875V14.25C20.5 14.913 20.7634 15.5489 21.2322 16.0178C21.7011 16.4866 22.337 16.75 23 16.75H32.375" stroke="#C2D1D9" stroke-width="2" stroke-linecap="round" stroke-linejoin="round"/>
</svg>