<svg width="30" height="30" viewBox="0 0 30 30" fill="none" xmlns="http://www.w3.org/2000/svg">
<path fill-rule="evenodd" clip-rule="evenodd" d="M11.2025 23.0864C7.52375 20.2676 2.5 15.6114 2.5 11.2089C2.5 3.85387 9.375 1.10762 15 6.78762C20.625 1.10762 27.5 3.85387 27.5 11.2089C27.5 15.6114 22.475 20.2676 18.7975 23.0864C17.1325 24.3614 16.3 25.0001 15 25.0001C13.7 25.0001 12.8675 24.3626 11.2025 23.0864ZM20.625 7.81262C20.8736 7.81262 21.1121 7.91139 21.2879 8.08721C21.4637 8.26302 21.5625 8.50148 21.5625 8.75012V10.3126H23.125C23.3736 10.3126 23.6121 10.4114 23.7879 10.5872C23.9637 10.763 24.0625 11.0015 24.0625 11.2501C24.0625 11.4988 23.9637 11.7372 23.7879 11.913C23.6121 12.0889 23.3736 12.1876 23.125 12.1876H21.5625V13.7501C21.5625 13.9988 21.4637 14.2372 21.2879 14.413C21.1121 14.5888 20.8736 14.6876 20.625 14.6876C20.3764 14.6876 20.1379 14.5888 19.9621 14.413C19.7863 14.2372 19.6875 13.9988 19.6875 13.7501V12.1876H18.125C17.8764 12.1876 17.6379 12.0889 17.4621 11.913C17.2863 11.7372 17.1875 11.4988 17.1875 11.2501C17.1875 11.0015 17.2863 10.763 17.4621 10.5872C17.6379 10.4114 17.8764 10.3126 18.125 10.3126H19.6875V8.75012C19.6875 8.50148 19.7863 8.26302 19.9621 8.08721C20.1379 7.91139 20.3764 7.81262 20.625 7.81262Z" fill="#2152FF"/>
</svg>
