<svg width="30" height="30" viewBox="0 0 30 30" fill="none" xmlns="http://www.w3.org/2000/svg">
<path fill-rule="evenodd" clip-rule="evenodd" d="M11.2025 23.0863C7.52375 20.2675 2.5 15.6112 2.5 11.2088C2.5 3.85375 9.375 1.1075 15 6.7875C20.625 1.1075 27.5 3.85375 27.5 11.2088C27.5 15.6112 22.475 20.2675 18.7975 23.0863C17.1325 24.3612 16.3 25 15 25C13.7 25 12.8675 24.3625 11.2025 23.0863ZM20.625 7.8125C20.8736 7.8125 21.1121 7.91127 21.2879 8.08709C21.4637 8.2629 21.5625 8.50136 21.5625 8.75V10.3125H23.125C23.3736 10.3125 23.6121 10.4113 23.7879 10.5871C23.9637 10.7629 24.0625 11.0014 24.0625 11.25C24.0625 11.4986 23.9637 11.7371 23.7879 11.9129C23.6121 12.0887 23.3736 12.1875 23.125 12.1875H21.5625V13.75C21.5625 13.9986 21.4637 14.2371 21.2879 14.4129C21.1121 14.5887 20.8736 14.6875 20.625 14.6875C20.3764 14.6875 20.1379 14.5887 19.9621 14.4129C19.7863 14.2371 19.6875 13.9986 19.6875 13.75V12.1875H18.125C17.8764 12.1875 17.6379 12.0887 17.4621 11.9129C17.2863 11.7371 17.1875 11.4986 17.1875 11.25C17.1875 11.0014 17.2863 10.7629 17.4621 10.5871C17.6379 10.4113 17.8764 10.3125 18.125 10.3125H19.6875V8.75C19.6875 8.50136 19.7863 8.2629 19.9621 8.08709C20.1379 7.91127 20.3764 7.8125 20.625 7.8125Z" fill="#39353D"/>
</svg>
