<svg width="344" height="344" viewBox="0 0 344 344" fill="none" xmlns="http://www.w3.org/2000/svg">
<path d="M342.569 294.332C350.866 277.913 327.153 195.816 162.738 195.816C44.0634 195.816 -10.405 263.014 1.63688 297.068" fill="url(#paint0_radial_478_15313)"/>
<mask id="mask0_478_15313" style="mask-type:luminance" maskUnits="userSpaceOnUse" x="0" y="195" width="344" height="103">
<path d="M342.569 294.332C350.866 277.913 327.153 195.816 162.738 195.816C44.0634 195.816 -10.405 263.014 1.63688 297.068" fill="white"/>
</mask>
<g mask="url(#mask0_478_15313)">
<ellipse opacity="0.671968" cx="137.379" cy="268.315" rx="9.04206" ry="5.02242" fill="url(#paint1_linear_478_15313)"/>
<ellipse opacity="0.256348" cx="229.67" cy="234.188" rx="14.2664" ry="7.83497" fill="url(#paint2_linear_478_15313)"/>
<ellipse opacity="0.729957" cx="67.3132" cy="213.294" rx="14.2664" ry="7.83497" fill="url(#paint3_linear_478_15313)"/>
</g>
<path opacity="0.5" d="M134.027 214.022C134.027 214.022 169.013 230.473 182.893 236.786C193.887 241.787 250.496 257.785 257.24 253.238C263.984 248.69 278.874 236.21 273.958 227.659C269.042 219.108 243.19 203.755 230.826 201.512C218.462 199.269 183.109 209.466 183.109 209.466L152.954 214.645L134.027 214.022Z" fill="url(#paint4_linear_478_15313)"/>
<path d="M159.96 140.466L120.973 169.133L131.368 144.744L170.412 119.957L159.96 140.466Z" fill="#E2E7EC"/>
<path d="M130.72 145.247L170.412 120.399V188.167L134.027 213.676L130.72 145.247Z" fill="#D8DFE6"/>
<path d="M170.412 120.399L231.274 134.638V202.43L170.412 188.192V120.399Z" fill="#E9EFF1"/>
<path d="M130.72 145.244L192.904 159.777V227.569L134.027 214.049L130.72 145.244Z" fill="#E8EAEB"/>
<path d="M191.58 159.801L231.272 134.953V202.72L191.58 227.569V159.801Z" fill="#D8DFE6"/>
<mask id="mask1_478_15313" style="mask-type:luminance" maskUnits="userSpaceOnUse" x="191" y="134" width="41" height="94">
<path d="M191.58 159.801L231.272 134.953V202.72L191.58 227.569V159.801Z" fill="white"/>
</mask>
<g mask="url(#mask1_478_15313)">
<rect x="206.323" y="129.306" width="12.4747" height="103.91" fill="#C7D0D9"/>
</g>
<path d="M209.429 179.938L248.472 155.151L230.624 134.953L191.58 159.74L209.429 179.938Z" fill="#E2E7EC"/>
<path opacity="0.5" d="M100.272 215.73L161.679 247.106L167.413 230.48L107.162 210.438L100.272 215.73Z" fill="url(#paint5_linear_478_15313)"/>
<path d="M98.5958 164.15L119.77 165.819L115.068 211.878C115.068 211.878 114.656 212.338 113.657 212.16C112.658 211.981 111.61 211.425 111.61 211.425L108.461 174.809C108.461 174.809 106.64 187.757 106.767 191.399C106.863 194.144 107.801 197.492 108.303 200.355C108.736 202.82 109.645 208.71 109.645 208.71C109.645 208.71 108.571 209.2 107.999 209.311C107.428 209.422 106.695 208.813 106.695 208.813C106.695 208.813 99.2708 194.401 99.1752 191.664C99.0796 188.927 98.5958 164.15 98.5958 164.15Z" fill="url(#paint6_linear_478_15313)"/>
<path d="M106.366 208.746C106.366 208.746 105.423 210.444 104.251 211.479C103.079 212.514 100.767 213.751 100.24 214.312C99.7134 214.874 100.289 215.702 100.289 215.702L105.955 215.504L110.483 211.674L109.85 208.024L106.366 208.746Z" fill="#677285"/>
<path d="M115.601 210.712L116.924 214.38C116.924 214.38 114.752 216.063 111.75 216.531C108.749 216.999 106.681 216.28 106.681 216.28C106.681 216.28 106.139 215.188 107.16 214.721C107.629 214.507 108.681 213.616 109.604 212.475C110.021 211.96 111.59 210.852 111.59 210.852L115.601 210.712Z" fill="#677285"/>
<path d="M125.088 140.137C125.088 140.137 126.824 142.777 127.888 142.07C128.952 141.364 135.596 134.554 135.596 134.554C135.596 134.554 137.572 133.033 137.937 133.395C138.303 133.756 137.278 134.554 137.278 134.554C137.278 134.554 139.435 134.766 140.109 134.766C140.782 134.766 142.2 135.842 141.273 136.204C140.346 136.566 136.751 136.656 136.751 136.656C136.751 136.656 131.293 146.977 128.449 147.709C125.605 148.441 121.687 144.302 121.687 144.302L125.088 140.137Z" fill="#FDE7E6"/>
<path d="M97.3575 140.326C97.3575 140.326 96.2195 142.656 95.1884 142.097C94.1572 141.538 88.3714 135.437 88.3714 135.437C88.3714 135.437 86.4445 134.257 85.9733 134.469C85.5022 134.681 86.6638 135.437 86.6638 135.437C86.6638 135.437 83.829 135.667 83.2957 135.881C82.7624 136.095 82.1413 136.753 82.9476 137.051C83.7539 137.35 86.8403 137.563 86.8403 137.563C86.8403 137.563 91.131 146.041 94.3818 147.033C97.6325 148.024 100.402 144.118 100.402 144.118L97.3575 140.326Z" fill="#FDE7E6"/>
<path d="M107.882 133.191V129.025C107.882 129.025 105.723 129.134 104.845 127.688C103.967 126.242 103.729 122.138 103.729 122.138L104.391 120.235L110.896 119.96L114.314 122.872L112.723 125.683L112.419 126.223L113.936 132.61L107.882 133.191Z" fill="#FDE7E6"/>
<mask id="mask2_478_15313" style="mask-type:luminance" maskUnits="userSpaceOnUse" x="103" y="119" width="12" height="15">
<path d="M107.882 133.191V129.025C107.882 129.025 105.723 129.134 104.845 127.688C103.967 126.242 103.729 122.138 103.729 122.138L104.391 120.235L110.896 119.96L114.314 122.872L112.723 125.683L112.419 126.223L113.936 132.61L107.882 133.191Z" fill="white"/>
</mask>
<g mask="url(#mask2_478_15313)">
<path d="M112.115 125.067C110.192 127.458 106.867 129.129 106.434 129.129C106.001 129.129 108.852 132.128 108.852 132.128L111.171 133.191L114.463 132.493L115.638 129.129L113.564 125.312C113.564 125.312 114.037 122.676 112.115 125.067Z" fill="url(#paint7_linear_478_15313)"/>
</g>
<path d="M95.9756 141.999L99.1724 146.305L101.211 144.152C101.211 144.152 99.6606 152.655 99.1724 156.732C98.6842 160.81 98.5935 164.871 98.5935 164.871C98.5935 164.871 103.712 166.772 107.528 167.091C111.344 167.411 120.228 166.588 120.228 166.588L119.081 142.655L122.408 145.744L126.315 141.233C126.315 141.233 119.59 130.898 118.318 130.296C117.046 129.694 113.511 130.296 113.511 130.296C113.511 130.296 111.002 133.265 109.985 133.306C108.968 133.348 106.711 130.296 106.711 130.296C106.711 130.296 103.106 129.72 102.058 130.898C101.01 132.076 95.9756 141.999 95.9756 141.999Z" fill="url(#paint8_linear_478_15313)"/>
<path d="M103.73 122.184C103.73 122.184 104.497 120.249 105.498 120.586C106.445 120.905 107.265 121.664 108.443 122.021C109.622 122.377 109.752 120.776 110.552 121.047C111.353 121.317 110.825 123.672 111.389 124.11C111.953 124.549 111.953 121.047 113.156 121.989C114.359 122.932 111.901 125.586 111.901 125.586C111.901 125.586 112.216 127.217 112.317 127.328C112.418 127.439 112.407 126.141 112.407 126.141C112.407 126.141 113.556 125.7 114.046 123.711C114.535 121.722 114.747 120.93 114.046 119.484C113.344 118.039 113.144 116.907 111.389 116.225C109.634 115.543 108.302 115.81 107.075 116.225C105.848 116.64 104.959 117.465 104.392 118.286C103.069 120.234 103.73 122.184 103.73 122.184Z" fill="#4D364F"/>
<path fill-rule="evenodd" clip-rule="evenodd" d="M222.014 71.1614C220.62 71.5876 191.757 88.8567 191.757 88.8567L200.18 89.4848L206.165 96.0997C206.165 96.0997 223.408 70.7353 222.014 71.1614Z" fill="#E8EAEB"/>
<mask id="mask3_478_15313" style="mask-type:luminance" maskUnits="userSpaceOnUse" x="191" y="71" width="32" height="26">
<path fill-rule="evenodd" clip-rule="evenodd" d="M222.014 71.1614C220.62 71.5876 191.757 88.8567 191.757 88.8567L200.18 89.4848L206.165 96.0997C206.165 96.0997 223.408 70.7353 222.014 71.1614Z" fill="white"/>
</mask>
<g mask="url(#mask3_478_15313)">
<path fill-rule="evenodd" clip-rule="evenodd" d="M200.18 89.4853L222.014 71.162L206.165 96.1002L200.18 89.4853Z" fill="#D8DFE6"/>
</g>
<path fill-rule="evenodd" clip-rule="evenodd" d="M217.679 91.1721L207.558 90.1142L222.024 71.3395L217.679 91.1721Z" fill="#E8EAEB"/>
<path fill-rule="evenodd" clip-rule="evenodd" d="M199.043 103.681C199.675 102.343 200.312 100.958 200.953 99.5254L202 99.9939C201.356 101.433 200.716 102.825 200.08 104.171L199.043 103.681ZM194.925 111.845C195.623 110.556 196.328 109.205 197.038 107.794L198.062 108.309C197.347 109.731 196.637 111.092 195.933 112.392L194.925 111.845ZM192.677 115.817C191.862 117.191 191.056 118.478 190.257 119.679L191.212 120.314C192.022 119.096 192.839 117.792 193.663 116.402L192.677 115.817ZM184.663 126.823C185.63 125.819 186.611 124.675 187.607 123.388L188.514 124.09C187.494 125.408 186.485 126.584 185.488 127.618L184.663 126.823ZM181.295 129.786C179.954 130.746 178.649 131.41 177.38 131.782L177.702 132.882C179.102 132.473 180.522 131.75 181.963 130.718L181.295 129.786ZM169.293 129.906C170.554 130.923 171.836 131.589 173.141 131.91L172.867 133.024C171.391 132.661 169.96 131.917 168.574 130.799L169.293 129.906ZM166.203 126.65C166.132 126.557 166.061 126.462 165.99 126.367C165.067 125.125 164.397 123.945 163.969 122.832L162.899 123.243C163.366 124.459 164.087 125.729 165.07 127.051C165.144 127.15 165.218 127.249 165.292 127.346L166.203 126.65ZM165.928 115.115C164.69 116.138 163.893 117.312 163.568 118.622L162.455 118.346C162.843 116.783 163.779 115.402 165.198 114.23L165.928 115.115ZM169.759 112.96C171.049 112.456 172.5 112.045 174.073 111.735L173.851 110.61C172.214 110.933 170.698 111.362 169.342 111.892L169.759 112.96ZM183.05 111.079C181.525 111.025 180.004 111.05 178.524 111.154L178.443 110.011C179.965 109.903 181.525 109.878 183.091 109.933L183.05 111.079ZM187.615 111.481C189.152 111.7 190.638 112 192.043 112.375L192.339 111.268C190.89 110.88 189.358 110.571 187.776 110.346L187.615 111.481ZM200.109 116.154C199.06 115.301 197.781 114.535 196.304 113.869L196.775 112.824C198.339 113.529 199.703 114.345 200.833 115.265L200.109 116.154ZM202.841 119.599C203.118 120.241 203.295 120.911 203.37 121.607C203.449 122.344 203.476 123.085 203.452 123.829L204.598 123.866C204.624 123.069 204.594 122.275 204.51 121.485C204.423 120.674 204.216 119.893 203.895 119.145L202.841 119.599ZM201.005 132.372C201.743 130.98 202.314 129.603 202.719 128.24L203.818 128.567C203.391 130.004 202.791 131.452 202.018 132.91L201.005 132.372ZM198.577 136.206C197.728 137.362 196.769 138.526 195.699 139.7L196.547 140.472C197.643 139.27 198.628 138.074 199.501 136.885L198.577 136.206ZM189.115 145.904C190.332 144.897 191.472 143.895 192.534 142.899L193.318 143.736C192.238 144.748 191.081 145.765 189.846 146.787L189.115 145.904ZM185.501 148.744C184.323 149.626 183.086 150.512 181.792 151.403L182.442 152.347C183.748 151.448 184.997 150.553 186.188 149.662L185.501 148.744ZM175.559 155.45C176.374 154.948 177.17 154.448 177.949 153.95L178.568 154.915C177.783 155.418 176.98 155.921 176.16 156.426L175.559 155.45Z" fill="#C7D0D9"/>
<defs>
<radialGradient id="paint0_radial_478_15313" cx="0" cy="0" r="1" gradientUnits="userSpaceOnUse" gradientTransform="translate(149.194 230.931) rotate(-90) scale(58.8702 614.84)">
<stop stop-color="#EBEDF0" stop-opacity="0.24"/>
<stop offset="0.536775" stop-color="#EBEDF0" stop-opacity="0.845525"/>
<stop offset="1" stop-color="#E0E4E7" stop-opacity="0.01"/>
</radialGradient>
<linearGradient id="paint1_linear_478_15313" x1="130.101" y1="266.984" x2="132.856" y2="272.875" gradientUnits="userSpaceOnUse">
<stop stop-color="#E1E7EA"/>
<stop offset="1" stop-color="#D0D6DC"/>
</linearGradient>
<linearGradient id="paint2_linear_478_15313" x1="217.691" y1="233.456" x2="222.731" y2="243.97" gradientUnits="userSpaceOnUse">
<stop stop-color="#E1E7EA"/>
<stop offset="1" stop-color="#D0D6DC"/>
</linearGradient>
<linearGradient id="paint3_linear_478_15313" x1="58.2167" y1="213.421" x2="61.0689" y2="224.784" gradientUnits="userSpaceOnUse">
<stop stop-color="#FBFBFB"/>
<stop offset="1" stop-color="#D9DFE3"/>
</linearGradient>
<linearGradient id="paint4_linear_478_15313" x1="128.886" y1="219.726" x2="139.064" y2="265.366" gradientUnits="userSpaceOnUse">
<stop stop-color="#C4CDD1"/>
<stop offset="1" stop-color="#C6CFD3" stop-opacity="0.01"/>
</linearGradient>
<linearGradient id="paint5_linear_478_15313" x1="98.1411" y1="224.32" x2="109.947" y2="255.131" gradientUnits="userSpaceOnUse">
<stop stop-color="#C4CDD1"/>
<stop offset="1" stop-color="#C6CFD3" stop-opacity="0.01"/>
</linearGradient>
<linearGradient id="paint6_linear_478_15313" x1="121.301" y1="211.962" x2="119.619" y2="163.78" gradientUnits="userSpaceOnUse">
<stop stop-color="#A1A7B8"/>
<stop offset="1" stop-color="#7B8195"/>
</linearGradient>
<linearGradient id="paint7_linear_478_15313" x1="113.026" y1="130.394" x2="113.026" y2="126.358" gradientUnits="userSpaceOnUse">
<stop stop-color="#FBD8D6"/>
<stop offset="1" stop-color="#EAC0BE" stop-opacity="0.7"/>
</linearGradient>
<linearGradient id="paint8_linear_478_15313" x1="80.6275" y1="146.974" x2="112.525" y2="180.623" gradientUnits="userSpaceOnUse">
<stop stop-color="#E5E9F0"/>
<stop offset="1" stop-color="#D2DAE8"/>
</linearGradient>
</defs>
</svg>
