<svg width="103" height="123" viewBox="0 0 103 123" fill="none" xmlns="http://www.w3.org/2000/svg">
<path d="M53.4766 59.95C28.3705 73.7138 20.6038 52.0307 10.9923 65.7421C-1.21544 83.1572 14.9105 100.467 41.2263 111.038C67.542 121.609 101.754 94.1436 97.8195 74.3875C94.8679 59.5671 73.5615 48.9389 53.4766 59.95Z" fill="#D5D5D5" fill-opacity="0.4"/>
<path d="M65.3322 6.4674C56.8412 4.8636 48.0575 6.50162 40.7153 11.0581C33.3731 15.6145 28.0061 22.7582 25.6739 31.0786C23.3417 39.3991 24.2139 48.2916 28.1182 56.0004C32.0225 63.7091 38.6752 69.6739 46.7628 72.717L48.6433 83.2568C48.7179 83.6539 48.9106 84.0193 49.1961 84.3052C49.4817 84.5912 49.8468 84.7843 50.2438 84.8595C50.6409 84.9347 51.0513 84.8883 51.4216 84.7266C51.7919 84.5648 52.1048 84.2951 52.3195 83.9528L58.0143 74.8568C66.6811 75.067 75.1099 72.0094 81.6262 66.2914C88.1426 60.5735 92.2697 52.6137 93.1879 43.9931C94.106 35.3725 91.7478 26.722 86.5819 19.7598C81.416 12.7977 73.8203 8.0335 65.3037 6.41354L65.3322 6.4674ZM90.0803 46.3842C88.5668 54.3183 84.0802 61.3749 77.5376 66.1116L74.4713 68.0794C67.5146 72.0211 59.3287 73.199 51.5428 71.3787C43.7569 69.5584 36.9418 64.8734 32.4538 58.2559C27.9657 51.6384 26.1337 43.5737 27.3223 35.6667C28.511 27.7597 32.6332 20.5901 38.8686 15.5847L41.8737 13.4793C47.12 10.1609 53.2228 8.4502 59.4296 8.55808C65.6365 8.66596 71.6761 10.5877 76.804 14.0864C81.9319 17.5852 85.9239 22.5079 88.288 28.2479C90.652 33.9879 91.2848 40.2942 90.1083 46.3895L90.0803 46.3842Z" fill="#AEAEAE"/>
<path d="M90.0809 46.3841C88.5674 54.3182 84.0808 61.3748 77.5382 66.1115L74.472 68.0793C67.5152 72.021 59.3294 73.1989 51.5435 71.3786C43.7576 69.5583 36.9425 64.8733 32.4544 58.2558C27.9663 51.6383 26.1343 43.5736 27.323 35.6666C28.5116 27.7596 32.6338 20.59 38.8692 15.5846L41.8743 13.4792C47.1207 10.1608 53.2234 8.45009 59.4303 8.55797C65.6371 8.66585 71.6767 10.5876 76.8046 14.0863C81.9325 17.5851 85.9245 22.5078 88.2886 28.2478C90.6527 33.9878 91.2855 40.2941 90.109 46.3894L90.0809 46.3841Z" fill="white"/>
<path d="M50.3036 59.4924C49.6353 59.3667 49 59.1049 48.4371 58.7233C47.8743 58.3417 47.3959 57.8485 47.0318 57.2742L38.2117 43.3664C37.8622 42.8161 37.6246 42.2023 37.5124 41.5602C37.4002 40.918 37.4155 40.26 37.5575 39.6238C37.6996 38.9875 37.9656 38.3855 38.3403 37.8521C38.715 37.3186 39.1911 36.8642 39.7414 36.5148C40.2917 36.1653 40.9055 35.9277 41.5476 35.8155C42.1898 35.7032 42.8478 35.7186 43.484 35.8606C44.1203 36.0027 44.7223 36.2686 45.2557 36.6433C45.7892 37.018 46.2436 37.4942 46.5931 38.0445L52.325 47.0752L73.4044 28.7798C74.4039 27.951 75.6881 27.5463 76.9822 27.6523C78.2763 27.7583 79.4775 28.3665 80.3289 29.3469C81.1802 30.3273 81.6141 31.6019 81.5376 32.8981C81.4612 34.1942 80.8805 35.409 79.9198 36.2825L54.4859 58.3851C53.9471 58.8588 53.3118 59.2099 52.624 59.4143C51.9363 59.6186 51.2124 59.6714 50.5023 59.5688L50.3036 59.4924Z" fill="#519E33"/>
</svg>
