<svg width="34" height="34" viewBox="0 0 34 34" fill="none" xmlns="http://www.w3.org/2000/svg">
<path fill-rule="evenodd" clip-rule="evenodd" d="M0.333496 16.9986C0.333496 7.80024 7.80016 0.331909 17.0002 0.331909C26.2168 0.331909 33.6668 7.80024 33.6668 16.9986C33.6668 26.2002 26.2168 33.6652 17.0002 33.6652C7.80016 33.6652 0.333496 26.2002 0.333496 16.9986ZM16.0502 21.9831L23.9668 14.0665C24.5335 13.4998 24.5335 12.5831 23.9668 11.9998C23.4002 11.4331 22.4668 11.4331 21.9002 11.9998L15.0168 18.8831L12.1002 15.9665C11.5335 15.3998 10.6002 15.3998 10.0335 15.9665C9.46683 16.5331 9.46683 17.4498 10.0335 18.0331L14.0002 21.9831C14.2835 22.2665 14.6502 22.3998 15.0168 22.3998C15.4002 22.3998 15.7668 22.2665 16.0502 21.9831Z" fill="#22C55E"/>
</svg>