<svg width="34" height="30" viewBox="0 0 34 30" fill="none" xmlns="http://www.w3.org/2000/svg">
<path fill-rule="evenodd" clip-rule="evenodd" d="M21.1287 2.40348L33.2433 23.4287C33.5099 24.0563 33.6266 24.5666 33.6599 25.0967C33.7266 26.3353 33.2933 27.5393 32.4434 28.4658C31.5936 29.3889 30.4438 29.9339 29.194 30H4.79809C4.28151 29.9686 3.76493 29.8514 3.28168 29.6697C0.865421 28.6953 -0.301049 25.9538 0.682119 23.5773L12.8801 2.38862C13.2967 1.6438 13.9299 1.00136 14.7131 0.58849C16.9794 -0.668299 19.8622 0.157449 21.1287 2.40348ZM18.4458 16.2595C18.4458 17.0523 17.7959 17.7145 16.996 17.7145C16.1962 17.7145 15.5296 17.0523 15.5296 16.2595V11.5875C15.5296 10.7931 16.1962 10.1507 16.996 10.1507C17.7959 10.1507 18.4458 10.7931 18.4458 11.5875V16.2595ZM16.996 23.3626C16.1962 23.3626 15.5296 22.7004 15.5296 21.9093C15.5296 21.1149 16.1962 20.4543 16.996 20.4543C17.7959 20.4543 18.4458 21.1001 18.4458 21.8911C18.4458 22.7004 17.7959 23.3626 16.996 23.3626Z" fill="#FFE033"/>
</svg>