<svg width="34" height="34" viewBox="0 0 34 34" fill="none" xmlns="http://www.w3.org/2000/svg">
<path fill-rule="evenodd" clip-rule="evenodd" d="M0.333496 16.9987C0.333496 7.80036 7.80016 0.332031 17.0002 0.332031C26.2168 0.332031 33.6668 7.80036 33.6668 16.9987C33.6668 26.2004 26.2168 33.6654 17.0002 33.6654C7.80016 33.6654 0.333496 26.2004 0.333496 16.9987ZM22.0164 21.9987C22.5831 21.4337 22.5831 20.517 22.0164 19.9504L19.0498 16.9837L22.0164 14.0154C22.5831 13.4504 22.5831 12.517 22.0164 11.9504C21.4498 11.382 20.5331 11.382 19.9498 11.9504L16.9998 14.9154L14.0331 11.9504C13.4498 11.382 12.5331 11.382 11.9664 11.9504C11.3998 12.517 11.3998 13.4504 11.9664 14.0154L14.9331 16.9837L11.9664 19.9337C11.3998 20.517 11.3998 21.4337 11.9664 21.9987C12.2498 22.282 12.6331 22.4337 12.9998 22.4337C13.3831 22.4337 13.7498 22.282 14.0331 21.9987L16.9998 19.0504L19.9664 21.9987C20.2498 22.3004 20.6164 22.4337 20.9831 22.4337C21.3664 22.4337 21.7331 22.282 22.0164 21.9987Z" fill="#B22735"/>
</svg>