<svg width="18" height="20" viewBox="0 0 18 20" fill="none" xmlns="http://www.w3.org/2000/svg">
<path d="M1.5 4.99935H3.16667M3.16667 4.99935H16.5M3.16667 4.99935V16.666C3.16667 17.108 3.34226 17.532 3.65482 17.8445C3.96738 18.1571 4.39131 18.3327 4.83333 18.3327H13.1667C13.6087 18.3327 14.0326 18.1571 14.3452 17.8445C14.6577 17.532 14.8333 17.108 14.8333 16.666V4.99935H3.16667ZM5.66667 4.99935V3.33268C5.66667 2.89065 5.84226 2.46673 6.15482 2.15417C6.46738 1.84161 6.89131 1.66602 7.33333 1.66602H10.6667C11.1087 1.66602 11.5326 1.84161 11.8452 2.15417C12.1577 2.46673 12.3333 2.89065 12.3333 3.33268V4.99935M7.33333 9.16602V14.166M10.6667 9.16602V14.166" stroke="#FF4364" stroke-width="1.66667" stroke-linecap="round" stroke-linejoin="round"/>
</svg>
